<!DOCTYPE svg PUBLIC "-//W3C//DTD SVG 1.1//EN" "http://www.w3.org/Graphics/SVG/1.1/DTD/svg11.dtd">
<!-- Uploaded to: SVG Repo, www.svgrepo.com, Transformed by: SVG Repo Mixer Tools -->
<svg height="800px" width="800px" version="1.1" id="Layer_1" xmlns="http://www.w3.org/2000/svg" xmlns:xlink="http://www.w3.org/1999/xlink" viewBox="0 0 512 512" xml:space="preserve" fill="" stroke="">
<g id="SVGRepo_bgCarrier" stroke-width="0"/>
<g id="SVGRepo_tracerCarrier" stroke-linecap="round" stroke-linejoin="round" stroke="#CCCCCC" stroke-width="27.648000000000003"> <g transform="translate(1 1)"> <path style="fill:#f3f4f6;" d="M468.333,178.2c0,14.507-11.093,25.6-25.6,25.6c-14.507,0-25.6-11.093-25.6-25.6 c0-14.507,11.093-25.6,25.6-25.6C457.24,152.6,468.333,163.693,468.333,178.2"/> <path style="fill:#686f80;" d="M212.333,348.867c-51.2,0-96.427-22.187-128-58.027v185.173c0,14.507,11.947,26.453,26.453,26.453 H313.88c14.507,0,26.453-11.947,26.453-26.453V290.84C308.76,326.68,263.533,348.867,212.333,348.867"/> <path style="fill:#686f80;" d="M199.533,348.867c-46.08,0-87.04-22.187-115.2-58.027v185.173c0,14.507,11.093,26.453,23.893,26.453 H290.84c13.653,0,23.893-11.947,23.893-26.453V290.84C286.573,326.68,245.613,348.867,199.533,348.867"/> <path style="fill:#686f80;" d="M109.933,314.733v161.28c0,14.507,11.093,26.453,23.893,26.453h-23.04 c-14.507,0-26.453-11.947-26.453-26.453V290.84C92.013,299.373,100.547,307.907,109.933,314.733"/> <polygon style="fill:#f3f4f6;" points="127,459.8 297.667,459.8 297.667,391.533 127,391.533 "/> <polygon style="fill:#f3f4f6;" points="127,459.8 272.067,459.8 272.067,391.533 127,391.533 "/> <path style="fill:#686f80;" d="M383,178.2c0,93.867-76.8,170.667-170.667,170.667S41.667,272.067,41.667,178.2 S118.467,7.533,212.333,7.533S383,84.333,383,178.2"/> <path style="fill:#686f80;" d="M357.4,178.2c0,93.867-70.827,170.667-157.867,170.667S41.667,272.067,41.667,178.2 S112.493,7.533,199.533,7.533S357.4,84.333,357.4,178.2"/> <path style="fill:#f3f4f6;" d="M255,178.2c0,23.893-18.773,42.667-42.667,42.667s-42.667-18.773-42.667-42.667 s18.773-42.667,42.667-42.667S255,154.307,255,178.2"/> <path style="fill:#686f80;" d="M212.333,7.533c2.56,0,4.267,0,6.827,0C134.68,11.8,67.267,86.04,67.267,178.2 S134.68,344.6,219.16,348.867c-2.56,0-4.267,0-6.827,0c-93.867,0-170.667-76.8-170.667-170.667S118.467,7.533,212.333,7.533"/> <path d="M212.333,357.4c-98.987,0-179.2-80.213-179.2-179.2S113.347-1,212.333-1s179.2,80.213,179.2,179.2 S311.32,357.4,212.333,357.4z M212.333,16.067C122.733,16.067,50.2,88.6,50.2,178.2s72.533,162.133,162.133,162.133 S374.467,267.8,374.467,178.2S301.933,16.067,212.333,16.067z"/> <path d="M313.88,511H110.787C92.013,511,75.8,494.787,75.8,476.013V267.8l15.36,17.067c30.72,34.987,75.093,55.467,121.173,55.467 s90.453-20.48,121.173-55.467l15.36-17.067v207.36C348.867,494.787,332.653,511,313.88,511z M92.867,311.32v163.84 c0,10.24,8.533,18.773,17.92,18.773H313.88c10.24,0,17.92-8.533,17.92-17.92V311.32c-32.427,29.013-75.093,46.08-119.467,46.08 S125.293,341.187,92.867,311.32z"/> <path d="M84.333,186.733c-5.12,0-8.533-3.413-8.533-8.533c0-75.093,61.44-136.533,136.533-136.533c5.12,0,8.533,3.413,8.533,8.533 s-3.413,8.533-8.533,8.533c-65.707,0-119.467,53.76-119.467,119.467C92.867,183.32,89.453,186.733,84.333,186.733z"/> <path d="M212.333,314.733c-5.12,0-8.533-3.413-8.533-8.533s3.413-8.533,8.533-8.533c65.707,0,119.467-53.76,119.467-119.467 c0-5.12,3.413-8.533,8.533-8.533c5.12,0,8.533,3.413,8.533,8.533C348.867,253.293,287.427,314.733,212.333,314.733z"/> <path d="M212.333,229.4c-28.16,0-51.2-23.04-51.2-51.2s23.04-51.2,51.2-51.2s51.2,23.04,51.2,51.2S240.493,229.4,212.333,229.4z M212.333,144.067c-18.773,0-34.133,15.36-34.133,34.133s15.36,34.133,34.133,34.133s34.133-15.36,34.133-34.133 S231.107,144.067,212.333,144.067z"/> <path d="M306.2,468.333H118.467V383H306.2V468.333z M135.533,451.267h153.6v-51.2h-153.6V451.267z"/> <path d="M178.2,434.2h-17.067c-5.12,0-8.533-3.413-8.533-8.533s3.413-8.533,8.533-8.533H178.2c5.12,0,8.533,3.413,8.533,8.533 S183.32,434.2,178.2,434.2z"/> <path d="M263.533,434.2h-17.067c-5.12,0-8.533-3.413-8.533-8.533s3.413-8.533,8.533-8.533h17.067c5.12,0,8.533,3.413,8.533,8.533 S268.653,434.2,263.533,434.2z"/> <path d="M220.867,425.667c0,5.12-3.413,8.533-8.533,8.533c-5.12,0-8.533-3.413-8.533-8.533s3.413-8.533,8.533-8.533 C217.453,417.133,220.867,420.547,220.867,425.667"/> <path d="M340.333,408.6c-2.56,0-5.12-0.853-6.827-3.413c-3.413-3.413-2.56-9.387,0.853-11.947l99.84-82.773V203.8 c0-5.12,3.413-8.533,8.533-8.533c5.12,0,8.533,3.413,8.533,8.533V319l-105.813,87.893C344.6,407.747,342.04,408.6,340.333,408.6z"/> <path d="M442.733,212.333c-18.773,0-34.133-15.36-34.133-34.133s15.36-34.133,34.133-34.133c18.773,0,34.133,15.36,34.133,34.133 S461.507,212.333,442.733,212.333z M442.733,161.133c-9.387,0-17.067,7.68-17.067,17.067s7.68,17.067,17.067,17.067 s17.067-7.68,17.067-17.067S452.12,161.133,442.733,161.133z"/> </g> </g>
<g id="SVGRepo_iconCarrier"> <g transform="translate(1 1)"> <path style="fill:#f3f4f6;" d="M468.333,178.2c0,14.507-11.093,25.6-25.6,25.6c-14.507,0-25.6-11.093-25.6-25.6 c0-14.507,11.093-25.6,25.6-25.6C457.24,152.6,468.333,163.693,468.333,178.2"/> <path style="fill:#686f80;" d="M212.333,348.867c-51.2,0-96.427-22.187-128-58.027v185.173c0,14.507,11.947,26.453,26.453,26.453 H313.88c14.507,0,26.453-11.947,26.453-26.453V290.84C308.76,326.68,263.533,348.867,212.333,348.867"/> <path style="fill:#686f80;" d="M199.533,348.867c-46.08,0-87.04-22.187-115.2-58.027v185.173c0,14.507,11.093,26.453,23.893,26.453 H290.84c13.653,0,23.893-11.947,23.893-26.453V290.84C286.573,326.68,245.613,348.867,199.533,348.867"/> <path style="fill:#686f80;" d="M109.933,314.733v161.28c0,14.507,11.093,26.453,23.893,26.453h-23.04 c-14.507,0-26.453-11.947-26.453-26.453V290.84C92.013,299.373,100.547,307.907,109.933,314.733"/> <polygon style="fill:#f3f4f6;" points="127,459.8 297.667,459.8 297.667,391.533 127,391.533 "/> <polygon style="fill:#f3f4f6;" points="127,459.8 272.067,459.8 272.067,391.533 127,391.533 "/> <path style="fill:#686f80;" d="M383,178.2c0,93.867-76.8,170.667-170.667,170.667S41.667,272.067,41.667,178.2 S118.467,7.533,212.333,7.533S383,84.333,383,178.2"/> <path style="fill:#686f80;" d="M357.4,178.2c0,93.867-70.827,170.667-157.867,170.667S41.667,272.067,41.667,178.2 S112.493,7.533,199.533,7.533S357.4,84.333,357.4,178.2"/> <path style="fill:#f3f4f6;" d="M255,178.2c0,23.893-18.773,42.667-42.667,42.667s-42.667-18.773-42.667-42.667 s18.773-42.667,42.667-42.667S255,154.307,255,178.2"/> <path style="fill:#686f80;" d="M212.333,7.533c2.56,0,4.267,0,6.827,0C134.68,11.8,67.267,86.04,67.267,178.2 S134.68,344.6,219.16,348.867c-2.56,0-4.267,0-6.827,0c-93.867,0-170.667-76.8-170.667-170.667S118.467,7.533,212.333,7.533"/> <path d="M212.333,357.4c-98.987,0-179.2-80.213-179.2-179.2S113.347-1,212.333-1s179.2,80.213,179.2,179.2 S311.32,357.4,212.333,357.4z M212.333,16.067C122.733,16.067,50.2,88.6,50.2,178.2s72.533,162.133,162.133,162.133 S374.467,267.8,374.467,178.2S301.933,16.067,212.333,16.067z"/> <path d="M313.88,511H110.787C92.013,511,75.8,494.787,75.8,476.013V267.8l15.36,17.067c30.72,34.987,75.093,55.467,121.173,55.467 s90.453-20.48,121.173-55.467l15.36-17.067v207.36C348.867,494.787,332.653,511,313.88,511z M92.867,311.32v163.84 c0,10.24,8.533,18.773,17.92,18.773H313.88c10.24,0,17.92-8.533,17.92-17.92V311.32c-32.427,29.013-75.093,46.08-119.467,46.08 S125.293,341.187,92.867,311.32z"/> <path d="M84.333,186.733c-5.12,0-8.533-3.413-8.533-8.533c0-75.093,61.44-136.533,136.533-136.533c5.12,0,8.533,3.413,8.533,8.533 s-3.413,8.533-8.533,8.533c-65.707,0-119.467,53.76-119.467,119.467C92.867,183.32,89.453,186.733,84.333,186.733z"/> <path d="M212.333,314.733c-5.12,0-8.533-3.413-8.533-8.533s3.413-8.533,8.533-8.533c65.707,0,119.467-53.76,119.467-119.467 c0-5.12,3.413-8.533,8.533-8.533c5.12,0,8.533,3.413,8.533,8.533C348.867,253.293,287.427,314.733,212.333,314.733z"/> <path d="M212.333,229.4c-28.16,0-51.2-23.04-51.2-51.2s23.04-51.2,51.2-51.2s51.2,23.04,51.2,51.2S240.493,229.4,212.333,229.4z M212.333,144.067c-18.773,0-34.133,15.36-34.133,34.133s15.36,34.133,34.133,34.133s34.133-15.36,34.133-34.133 S231.107,144.067,212.333,144.067z"/> <path d="M306.2,468.333H118.467V383H306.2V468.333z M135.533,451.267h153.6v-51.2h-153.6V451.267z"/> <path d="M178.2,434.2h-17.067c-5.12,0-8.533-3.413-8.533-8.533s3.413-8.533,8.533-8.533H178.2c5.12,0,8.533,3.413,8.533,8.533 S183.32,434.2,178.2,434.2z"/> <path d="M263.533,434.2h-17.067c-5.12,0-8.533-3.413-8.533-8.533s3.413-8.533,8.533-8.533h17.067c5.12,0,8.533,3.413,8.533,8.533 S268.653,434.2,263.533,434.2z"/> <path d="M220.867,425.667c0,5.12-3.413,8.533-8.533,8.533c-5.12,0-8.533-3.413-8.533-8.533s3.413-8.533,8.533-8.533 C217.453,417.133,220.867,420.547,220.867,425.667"/> <path d="M340.333,408.6c-2.56,0-5.12-0.853-6.827-3.413c-3.413-3.413-2.56-9.387,0.853-11.947l99.84-82.773V203.8 c0-5.12,3.413-8.533,8.533-8.533c5.12,0,8.533,3.413,8.533,8.533V319l-105.813,87.893C344.6,407.747,342.04,408.6,340.333,408.6z"/> <path d="M442.733,212.333c-18.773,0-34.133-15.36-34.133-34.133s15.36-34.133,34.133-34.133c18.773,0,34.133,15.36,34.133,34.133 S461.507,212.333,442.733,212.333z M442.733,161.133c-9.387,0-17.067,7.68-17.067,17.067s7.68,17.067,17.067,17.067 s17.067-7.68,17.067-17.067S452.12,161.133,442.733,161.133z"/> </g> </g>
</svg>