<!DOCTYPE svg PUBLIC "-//W3C//DTD SVG 1.1//EN" "http://www.w3.org/Graphics/SVG/1.1/DTD/svg11.dtd">
<!-- Uploaded to: SVG Repo, www.svgrepo.com, Transformed by: SVG Repo Mixer Tools -->
<svg fill="#686f80" version="1.1" id="Layer_1" xmlns="http://www.w3.org/2000/svg" xmlns:xlink="http://www.w3.org/1999/xlink" viewBox="0 0 511.995 511.995" xml:space="preserve" width="800px" height="800px">
<g id="SVGRepo_bgCarrier" stroke-width="0"/>
<g id="SVGRepo_tracerCarrier" stroke-linecap="round" stroke-linejoin="round" stroke="#CCCCCC" stroke-width="16.38384"> <g> <g> <rect y="468.512" width="511.995" height="15.661"/> </g> </g> <g> <g> <path d="M231.996,308.65c-17.552,0-31.83,14.279-31.83,31.83c0,17.551,14.279,31.83,31.83,31.83h279.995v-15.661h-53.093 l32.338-32.338h20.755v-15.66H231.996z M256.843,356.65h-24.847c-8.915-0.001-16.169-7.254-16.169-16.17 c0-8.915,7.253-16.169,16.169-16.169h24.847V356.65z M272.504,356.649v-32.338h52.585l-32.338,32.338H272.504z M314.9,356.649 l32.337-32.338h49.851l-32.338,32.338H314.9z M436.749,356.649h-49.851l32.338-32.338h49.849L436.749,356.649z"/> </g> </g> <g> <g> <rect x="231.781" y="332.688" width="15.661" height="15.661"/> </g> </g> <g> <g> <polygon points="216.124,379.676 216.124,461.114 231.785,461.114 231.785,395.337 272.504,395.337 272.504,379.676 "/> </g> </g> <g> <g> <polygon points="168.096,61.233 168.096,461.114 183.758,461.114 183.758,76.894 511.598,76.894 511.598,61.233 "/> </g> </g> <g> <g> <path d="M0.169,60.654v247.657h151.66V60.654H0.169z M136.168,292.65H15.83V76.315h120.337V292.65z"/> </g> </g> <g> <g> <path d="M32.366,92.555V244.99h15.661v-73.085h72.041v-79.35H32.366z M104.408,156.244h-56.38v-48.028h56.38V156.244z"/> </g> </g> <g> <g> <rect x="72.037" y="229.334" width="48.028" height="15.661"/> </g> </g> <g> <g> <rect x="72.037" y="204.276" width="48.028" height="15.661"/> </g> </g> <g> <g> <rect x="31.318" y="260.657" width="16.705" height="15.661"/> </g> </g> <g> <g> <rect x="55.332" y="260.657" width="16.705" height="15.661"/> </g> </g> <g> <g> <rect x="79.346" y="260.657" width="16.705" height="15.661"/> </g> </g> <g> <g> <rect x="104.404" y="260.657" width="15.661" height="15.661"/> </g> </g> <g> <g> <polygon points="136.774,315.988 136.774,348.354 0,348.354 0,364.015 136.774,364.015 136.774,379.676 0,379.676 0,395.337 136.774,395.337 136.774,461.114 152.435,461.114 152.435,315.988 "/> </g> </g> <g> <g> <polygon points="136.774,27.822 136.774,51.836 152.435,51.836 152.435,43.483 511.598,43.483 511.598,27.822 "/> </g> </g> </g>
<g id="SVGRepo_iconCarrier"> <g> <g> <rect y="468.512" width="511.995" height="15.661"/> </g> </g> <g> <g> <path d="M231.996,308.65c-17.552,0-31.83,14.279-31.83,31.83c0,17.551,14.279,31.83,31.83,31.83h279.995v-15.661h-53.093 l32.338-32.338h20.755v-15.66H231.996z M256.843,356.65h-24.847c-8.915-0.001-16.169-7.254-16.169-16.17 c0-8.915,7.253-16.169,16.169-16.169h24.847V356.65z M272.504,356.649v-32.338h52.585l-32.338,32.338H272.504z M314.9,356.649 l32.337-32.338h49.851l-32.338,32.338H314.9z M436.749,356.649h-49.851l32.338-32.338h49.849L436.749,356.649z"/> </g> </g> <g> <g> <rect x="231.781" y="332.688" width="15.661" height="15.661"/> </g> </g> <g> <g> <polygon points="216.124,379.676 216.124,461.114 231.785,461.114 231.785,395.337 272.504,395.337 272.504,379.676 "/> </g> </g> <g> <g> <polygon points="168.096,61.233 168.096,461.114 183.758,461.114 183.758,76.894 511.598,76.894 511.598,61.233 "/> </g> </g> <g> <g> <path d="M0.169,60.654v247.657h151.66V60.654H0.169z M136.168,292.65H15.83V76.315h120.337V292.65z"/> </g> </g> <g> <g> <path d="M32.366,92.555V244.99h15.661v-73.085h72.041v-79.35H32.366z M104.408,156.244h-56.38v-48.028h56.38V156.244z"/> </g> </g> <g> <g> <rect x="72.037" y="229.334" width="48.028" height="15.661"/> </g> </g> <g> <g> <rect x="72.037" y="204.276" width="48.028" height="15.661"/> </g> </g> <g> <g> <rect x="31.318" y="260.657" width="16.705" height="15.661"/> </g> </g> <g> <g> <rect x="55.332" y="260.657" width="16.705" height="15.661"/> </g> </g> <g> <g> <rect x="79.346" y="260.657" width="16.705" height="15.661"/> </g> </g> <g> <g> <rect x="104.404" y="260.657" width="15.661" height="15.661"/> </g> </g> <g> <g> <polygon points="136.774,315.988 136.774,348.354 0,348.354 0,364.015 136.774,364.015 136.774,379.676 0,379.676 0,395.337 136.774,395.337 136.774,461.114 152.435,461.114 152.435,315.988 "/> </g> </g> <g> <g> <polygon points="136.774,27.822 136.774,51.836 152.435,51.836 152.435,43.483 511.598,43.483 511.598,27.822 "/> </g> </g> </g>
</svg>