<!DOCTYPE svg PUBLIC "-//W3C//DTD SVG 1.1//EN" "http://www.w3.org/Graphics/SVG/1.1/DTD/svg11.dtd">
<!-- Uploaded to: SVG Repo, www.svgrepo.com, Transformed by: SVG Repo Mixer Tools -->
<svg fill="#ffff" height="800px" width="800px" version="1.1" id="Layer_1" xmlns="http://www.w3.org/2000/svg" xmlns:xlink="http://www.w3.org/1999/xlink" viewBox="0 0 512 512" xml:space="preserve" stroke="#ffff">
<g id="SVGRepo_bgCarrier" stroke-width="0"/>
<g id="SVGRepo_tracerCarrier" stroke-linecap="round" stroke-linejoin="round"/>
<g id="SVGRepo_iconCarrier"> <g transform="translate(1 1)"> <g> <g> <path d="M468.333,118.467H331.8v-8.533c0-14.507-11.093-25.6-25.6-25.6h-34.133c-14.507,0-25.6,11.093-25.6,25.6v8.533H229.4 v-8.533c0-14.507-11.093-25.6-25.6-25.6h-34.133c-14.507,0-25.6,11.093-25.6,25.6v8.533H127v-8.533 c0-14.507-11.093-25.6-25.6-25.6H67.267c-14.507,0-25.6,11.093-25.6,25.6v8.533C17.773,118.467-1,137.24-1,161.133v34.133V383 c0,23.893,18.773,42.667,42.667,42.667h358.4h68.267C492.227,425.667,511,406.893,511,383V161.133 C511,137.24,492.227,118.467,468.333,118.467z M263.533,109.933c0-5.12,3.413-8.533,8.533-8.533H306.2 c5.12,0,8.533,3.413,8.533,8.533v8.533h-51.2V109.933z M161.133,109.933c0-5.12,3.413-8.533,8.533-8.533H203.8 c5.12,0,8.533,3.413,8.533,8.533v8.533h-51.2V109.933z M58.733,109.933c0-5.12,3.413-8.533,8.533-8.533H101.4 c5.12,0,8.533,3.413,8.533,8.533v8.533h-51.2V109.933z M41.667,408.6c-14.507,0-25.6-11.093-25.6-25.6V203.8h349.867 c14.507,0,25.6,11.093,25.6,25.6v179.2H41.667z M493.933,383c0,14.507-11.093,25.6-25.6,25.6H408.6V229.4 c0-23.893-18.773-42.667-42.667-42.667H16.067v-25.6c0-14.507,11.093-25.6,25.6-25.6H50.2h68.267H152.6h68.267H255h68.267 h145.067c14.507,0,25.6,11.093,25.6,25.6V383z"/> <path d="M323.267,229.4H84.333c-23.893,0-42.667,18.773-42.667,42.667v68.267C41.667,364.227,60.44,383,84.333,383h238.933 c23.893,0,42.667-18.773,42.667-42.667v-68.267C365.933,248.173,347.16,229.4,323.267,229.4z M348.867,340.333 c0,14.507-11.093,25.6-25.6,25.6H84.333c-14.507,0-25.6-11.093-25.6-25.6v-68.267c0-14.507,11.093-25.6,25.6-25.6h238.933 c14.507,0,25.6,11.093,25.6,25.6V340.333z"/> <path d="M109.933,272.067c-18.773,0-34.133,15.36-34.133,34.133c0,18.773,15.36,34.133,34.133,34.133s34.133-15.36,34.133-34.133 C144.067,287.427,128.707,272.067,109.933,272.067z M109.933,323.267c-9.387,0-17.067-7.68-17.067-17.067 s7.68-17.067,17.067-17.067S127,296.813,127,306.2S119.32,323.267,109.933,323.267z"/> <path d="M297.667,272.067c-18.773,0-34.133,15.36-34.133,34.133c0,18.773,15.36,34.133,34.133,34.133S331.8,324.973,331.8,306.2 C331.8,287.427,316.44,272.067,297.667,272.067z M297.667,323.267c-9.387,0-17.067-7.68-17.067-17.067s7.68-17.067,17.067-17.067 s17.067,7.68,17.067,17.067S307.053,323.267,297.667,323.267z"/> <path d="M229.4,272.067h-51.2c-5.12,0-8.533,3.413-8.533,8.533v51.2c0,5.12,3.413,8.533,8.533,8.533h51.2 c5.12,0,8.533-3.413,8.533-8.533v-51.2C237.933,275.48,234.52,272.067,229.4,272.067z M220.867,323.267h-34.133v-34.133h34.133 V323.267z"/> <path d="M468.333,314.733c-5.12,0-8.533,3.413-8.533,8.533v51.2c0,5.12,3.413,8.533,8.533,8.533s8.533-3.413,8.533-8.533v-51.2 C476.867,318.147,473.453,314.733,468.333,314.733z"/> <path d="M434.2,272.067c-5.12,0-8.533,3.413-8.533,8.533v51.2c0,5.12,3.413,8.533,8.533,8.533s8.533-3.413,8.533-8.533v-51.2 C442.733,275.48,439.32,272.067,434.2,272.067z"/> <path d="M468.333,229.4c-5.12,0-8.533,3.413-8.533,8.533v51.2c0,5.12,3.413,8.533,8.533,8.533s8.533-3.413,8.533-8.533v-51.2 C476.867,232.813,473.453,229.4,468.333,229.4z"/> <path d="M434.2,186.733c-5.12,0-8.533,3.413-8.533,8.533v51.2c0,5.12,3.413,8.533,8.533,8.533s8.533-3.413,8.533-8.533v-51.2 C442.733,190.147,439.32,186.733,434.2,186.733z"/> </g> </g> </g> </g>
</svg>